<?xml version="1.0" encoding="utf-8"?>
<!-- Generator: Adobe Illustrator 21.1.0, SVG Export Plug-In . SVG Version: 6.00 Build 0)  -->
<svg version="1.1" id="_x32_" transform="rotate(0)"
	 xmlns="http://www.w3.org/2000/svg" xmlns:xlink="http://www.w3.org/1999/xlink" x="0px" y="0px" viewBox="0 0 256 256"
	 style="enable-background:new 0 0 256 256;" xml:space="preserve">
<style type="text/css">
	.st0{fill:#446951;}
</style>
<g id="SVGRepo_bgCarrier">
</g>
<g id="SVGRepo_tracerCarrier">
</g>
<g id="SVGRepo_iconCarrier">
	<g>
		<path class="st0" d="M239,117.3c0-13.5-5.7-25.6-14.8-34.6c0.3-2.3,0.6-4.7,0.6-7.2c0-27.1-21.4-49.4-49-52.6
			C161.8,8.9,142.1,0,120.2,0c-42,0-76,32.3-76,72.2c0,0.2,0,0.4,0,0.6C28.4,82.9,18,100.1,18,119.5c0,26.7,19.5,49,45.7,54.8
			c5.3,12.3,18.1,21.1,33,21.1c5.6,0,10.8-1.2,15.5-3.4v64h40.8v-42l15.9-25.8c16.3-1.1,30.1-10.9,36.2-24.5
			C224.9,156.6,239,138.5,239,117.3z M130.9,171.1c0.3,0.5,0.7,0.9,1.1,1.4l-1.8,0.7C130.5,172.5,130.7,171.8,130.9,171.1z
			 M143.7,202.7v-20.3c3.8,2.2,7.9,3.8,12.4,4.8L143.7,202.7z"/>
	</g>
</g>
</svg>
